<svg xmlns="http://www.w3.org/2000/svg" xmlns:xlink="http://www.w3.org/1999/xlink" width="136" zoomAndPan="magnify" viewBox="0 0 102 133.500001" height="178" preserveAspectRatio="xMidYMid meet" version="1.0"><defs><g/></defs><g fill="#374427" fill-opacity="1"><g transform="translate(0.190298, 97.486409)"><g><path d="M 96.75 -28.5 C 96.75 -28.050781 96.117188 -27.609375 94.859375 -27.171875 L 91.171875 -25.9375 C 90.429688 -25.71875 89.113281 -25.476562 87.21875 -25.21875 C 85.332031 -24.957031 82.832031 -24.71875 79.71875 -24.5 C 78.445312 -22.789062 77.050781 -20.953125 75.53125 -18.984375 C 74.007812 -17.015625 72.394531 -14.84375 70.6875 -12.46875 C 72.320312 -10.394531 74.585938 -8.128906 77.484375 -5.671875 C 78.972656 -4.566406 80.398438 -3.4375 81.765625 -2.28125 C 83.140625 -1.132812 84.492188 0.03125 85.828125 1.21875 L 83.5 3.125 C 82.53125 2.601562 81.5625 2.097656 80.59375 1.609375 C 79.632812 1.128906 78.632812 0.59375 77.59375 0 C 75.289062 -1.40625 73.175781 -2.832031 71.25 -4.28125 C 69.320312 -5.726562 67.578125 -7.269531 66.015625 -8.90625 C 58.960938 -4.082031 53.140625 -0.707031 48.546875 1.21875 C 43.566406 3.15625 37.882812 4.125 31.5 4.125 C 24.300781 4.125 18.550781 2.453125 14.25 -0.890625 C 9.875 -4.078125 7.609375 -8.195312 7.453125 -13.25 C 7.453125 -18.375 9.609375 -23.125 13.921875 -27.5 C 18.296875 -32.03125 26.085938 -37.632812 37.296875 -44.3125 C 36.628906 -46.382812 36.144531 -48.609375 35.84375 -50.984375 C 35.550781 -53.359375 35.367188 -55.847656 35.296875 -58.453125 C 35.296875 -64.535156 39.300781 -71.328125 47.3125 -78.828125 C 55.257812 -86.242188 62.71875 -89.988281 69.6875 -90.0625 C 72.507812 -90.0625 74.847656 -89.132812 76.703125 -87.28125 C 78.628906 -85.570312 79.632812 -83.457031 79.71875 -80.9375 C 79.71875 -75.96875 74.59375 -69.140625 64.34375 -60.453125 C 61.300781 -58.003906 58.015625 -55.476562 54.484375 -52.875 C 50.960938 -50.28125 47.160156 -47.648438 43.078125 -44.984375 C 46.273438 -36.742188 54.703125 -26.535156 68.359375 -14.359375 C 69.546875 -15.398438 70.84375 -16.753906 72.25 -18.421875 C 73.664062 -20.097656 75.1875 -22.195312 76.8125 -24.71875 C 74.507812 -24.71875 73.285156 -25.238281 73.140625 -26.28125 C 73.140625 -27.382812 74.144531 -28.457031 76.15625 -29.5 C 76.59375 -29.644531 78.296875 -29.796875 81.265625 -29.953125 C 91.585938 -29.953125 96.75 -29.46875 96.75 -28.5 Z M 74.703125 -78.828125 C 74.703125 -83.421875 71.507812 -85.753906 65.125 -85.828125 C 62.082031 -85.828125 59.078125 -85.140625 56.109375 -83.765625 C 53.140625 -82.398438 50.242188 -80.304688 47.421875 -77.484375 C 41.929688 -71.992188 39.113281 -66.207031 38.96875 -60.125 C 38.96875 -58.113281 39.410156 -55.550781 40.296875 -52.4375 C 40.523438 -51.394531 40.769531 -50.445312 41.03125 -49.59375 C 41.289062 -48.738281 41.601562 -47.832031 41.96875 -46.875 C 45.007812 -48.945312 48.03125 -51.003906 51.03125 -53.046875 C 54.039062 -55.085938 57.144531 -57.1875 60.34375 -59.34375 C 69.914062 -66.46875 74.703125 -72.960938 74.703125 -78.828125 Z M 63.90625 -10.796875 C 62.125 -12.285156 60.378906 -13.769531 58.671875 -15.25 C 56.960938 -16.738281 55.328125 -18.296875 53.765625 -19.921875 C 46.566406 -27.347656 41.265625 -34.695312 37.859375 -41.96875 C 28.867188 -36.40625 22.59375 -31.582031 19.03125 -27.5 C 15.550781 -23.34375 13.769531 -18.890625 13.6875 -14.140625 C 13.6875 -9.316406 15.285156 -5.382812 18.484375 -2.34375 C 21.671875 0.625 26.007812 2.109375 31.5 2.109375 C 38.257812 2.109375 43.644531 1.296875 47.65625 -0.328125 C 49.65625 -1.148438 52.007812 -2.429688 54.71875 -4.171875 C 57.425781 -5.921875 60.488281 -8.128906 63.90625 -10.796875 Z M 63.90625 -10.796875 "/></g></g></g></svg>