<svg xmlns="http://www.w3.org/2000/svg" xmlns:xlink="http://www.w3.org/1999/xlink" width="500" zoomAndPan="magnify" viewBox="0 0 375 135.000003" height="180" preserveAspectRatio="xMidYMid meet" version="1.0"><defs><g/></defs><g fill="#374427" fill-opacity="1"><g transform="translate(26.258094, 96.935669)"><g><path d="M 101.625 -49.59375 C 101.625 -47.007812 101.492188 -43.925781 101.234375 -40.34375 C 100.972656 -36.769531 100.585938 -32.660156 100.078125 -28.015625 C 99.117188 -18.929688 98.007812 -11.769531 96.75 -6.53125 C 97.125 -6.675781 97.421875 -6.820312 97.640625 -6.96875 C 97.859375 -7.125 98.15625 -7.347656 98.53125 -7.640625 C 98.96875 -8.078125 99.410156 -8.296875 99.859375 -8.296875 C 100.671875 -8.296875 101.078125 -8.003906 101.078125 -7.421875 C 101.078125 -6.972656 99.488281 -5.53125 96.3125 -3.09375 L 95.640625 2.875 C 95.566406 3.46875 95.382812 3.96875 95.09375 4.375 C 94.800781 4.78125 94.394531 5.203125 93.875 5.640625 C 93.0625 6.234375 92.140625 6.640625 91.109375 6.859375 C 90.585938 6.859375 90.328125 6.234375 90.328125 4.984375 C 90.328125 4.171875 90.34375 3.25 90.375 2.21875 C 90.414062 1.1875 90.550781 0.0390625 90.78125 -1.21875 C 82.882812 2.175781 75.945312 3.875 69.96875 3.875 C 66.050781 3.875 59 1.878906 48.8125 -2.109375 C 38.632812 -6.085938 32.21875 -8.078125 29.5625 -8.078125 C 23.582031 -8.078125 17.640625 -7.007812 11.734375 -4.875 C 9.367188 -3.988281 6.953125 -2.898438 4.484375 -1.609375 C 2.015625 -0.316406 -0.695312 1.25 -3.65625 3.09375 L -17.71875 12.171875 C -18.375 12.546875 -19.476562 12.804688 -21.03125 12.953125 C -21.988281 12.953125 -22.46875 12.507812 -22.46875 11.625 C -22.46875 11.625 -21.101562 10.992188 -18.375 9.734375 C -16.007812 8.484375 -13.09375 6.695312 -9.625 4.375 C -6.15625 2.050781 -2.097656 -0.914062 2.546875 -4.53125 C 5.203125 -6.53125 8.671875 -9.519531 12.953125 -13.5 C 17.234375 -17.488281 22.398438 -22.472656 28.453125 -28.453125 C 34.203125 -34.203125 39.398438 -39.492188 44.046875 -44.328125 C 48.703125 -49.171875 52.914062 -53.691406 56.6875 -57.890625 C 65.757812 -68.222656 74.875 -73.390625 84.03125 -73.390625 C 90.738281 -73.390625 95.570312 -70.515625 98.53125 -64.765625 C 99.5625 -62.847656 100.316406 -60.632812 100.796875 -58.125 C 101.273438 -55.613281 101.550781 -52.769531 101.625 -49.59375 Z M 95.875 -47.265625 C 95.875 -62.097656 91.113281 -69.515625 81.59375 -69.515625 C 75.90625 -69.515625 69.664062 -66.566406 62.875 -60.671875 C 61.695312 -59.703125 55.203125 -53.207031 43.390625 -41.1875 L 24.140625 -21.46875 C 20.742188 -18.15625 17.3125 -14.96875 13.84375 -11.90625 C 10.375 -8.84375 6.867188 -5.90625 3.328125 -3.09375 C 6.941406 -4.644531 9.910156 -5.898438 12.234375 -6.859375 C 14.554688 -7.816406 16.269531 -8.484375 17.375 -8.859375 C 21.21875 -9.960938 25.722656 -10.515625 30.890625 -10.515625 C 33.617188 -10.515625 37.066406 -10.070312 41.234375 -9.1875 C 45.398438 -8.300781 50.328125 -6.863281 56.015625 -4.875 C 61.703125 -3.101562 66.078125 -1.773438 69.140625 -0.890625 C 72.203125 -0.00390625 74.023438 0.515625 74.609375 0.671875 C 77.335938 0.671875 80.476562 0.0390625 84.03125 -1.21875 C 85.28125 -1.65625 86.492188 -2.113281 87.671875 -2.59375 C 88.859375 -3.082031 90.078125 -3.617188 91.328125 -4.203125 L 94.203125 -27.671875 C 95.316406 -36.972656 95.875 -43.503906 95.875 -47.265625 Z M 95.875 -47.265625 "/></g></g></g><g fill="#374427" fill-opacity="1"><g transform="translate(141.385534, 96.935669)"><g><path d="M 56.5625 -18.15625 C 56.5625 -17.707031 56.414062 -17.300781 56.125 -16.9375 C 48.96875 -11.03125 43.953125 -7.117188 41.078125 -5.203125 C 34.359375 -0.628906 28.5625 1.65625 23.6875 1.65625 C 19.476562 1.65625 17.375 -0.554688 17.375 -4.984375 C 17.375 -5.796875 17.46875 -6.8125 17.65625 -8.03125 C 17.84375 -9.25 18.15625 -10.707031 18.59375 -12.40625 C 15.789062 -10.78125 12.929688 -9.097656 10.015625 -7.359375 C 7.097656 -5.628906 4.09375 -3.726562 1 -1.65625 C -3.351562 1.21875 -5.71875 2.65625 -6.09375 2.65625 C -6.164062 2.65625 -6.457031 2.507812 -6.96875 2.21875 C -7.414062 1.988281 -7.640625 1.726562 -7.640625 1.4375 C -7.640625 0.925781 -7.320312 0.0820312 -6.6875 -1.09375 C -6.0625 -2.28125 -5.015625 -3.910156 -3.546875 -5.984375 C -1.992188 -8.265625 -0.757812 -10.085938 0.15625 -11.453125 C 1.082031 -12.816406 1.734375 -13.796875 2.109375 -14.390625 C 1.804688 -14.835938 1.65625 -15.460938 1.65625 -16.265625 C 1.65625 -16.859375 2.132812 -17.488281 3.09375 -18.15625 C 4.132812 -18.75 4.945312 -19.082031 5.53125 -19.15625 C 8.039062 -19.15625 9.296875 -18.191406 9.296875 -16.265625 C 9.296875 -15.753906 8.113281 -13.875 5.75 -10.625 C 4.644531 -9.226562 3.703125 -8.046875 2.921875 -7.078125 C 2.148438 -6.117188 1.472656 -5.347656 0.890625 -4.765625 C 14.910156 -14.359375 23.953125 -19.15625 28.015625 -19.15625 C 28.378906 -19.15625 28.671875 -18.675781 28.890625 -17.71875 C 28.890625 -17.5625 27.75 -16.191406 25.46875 -13.609375 C 24.425781 -12.285156 23.609375 -11.015625 23.015625 -9.796875 C 22.429688 -8.578125 22.140625 -7.34375 22.140625 -6.09375 C 22.140625 -3.363281 24.019531 -2 27.78125 -2 C 30.59375 -2 35.28125 -4.210938 41.84375 -8.640625 C 43.101562 -9.367188 47.609375 -12.6875 55.359375 -18.59375 C 55.578125 -18.664062 55.832031 -18.703125 56.125 -18.703125 C 56.34375 -18.703125 56.488281 -18.519531 56.5625 -18.15625 Z M 56.5625 -18.15625 "/></g></g></g><g fill="#374427" fill-opacity="1"><g transform="translate(193.192887, 96.935669)"><g><path d="M 74.828125 -8.296875 C 74.910156 -8.078125 74.894531 -7.835938 74.78125 -7.578125 C 74.664062 -7.328125 74.5 -7.203125 74.28125 -7.203125 C 70.59375 -5.273438 67.472656 -3.703125 64.921875 -2.484375 C 62.378906 -1.273438 60.164062 -0.300781 58.28125 0.4375 C 56.40625 1.175781 54.742188 1.691406 53.296875 1.984375 C 51.859375 2.285156 50.40625 2.4375 48.9375 2.4375 C 44.582031 2.4375 42.40625 0.367188 42.40625 -3.765625 C 42.40625 -5.242188 42.585938 -6.679688 42.953125 -8.078125 C 43.316406 -9.484375 43.90625 -10.925781 44.71875 -12.40625 C 44.207031 -12.40625 43.453125 -12.144531 42.453125 -11.625 C 41.453125 -11.101562 40.472656 -10.585938 39.515625 -10.078125 C 36.046875 -8.523438 32.890625 -6.769531 30.046875 -4.8125 C 27.210938 -2.851562 24.800781 -1.285156 22.8125 -0.109375 C 19.34375 1.804688 17.238281 2.765625 16.5 2.765625 C 15.019531 2.765625 14.28125 2.101562 14.28125 0.78125 C 14.28125 -0.40625 15.273438 -2.328125 17.265625 -4.984375 L 24.6875 -13.84375 C 16.195312 -8.53125 9.703125 -4.539062 5.203125 -1.875 C 0.703125 0.78125 -1.769531 2.144531 -2.21875 2.21875 C -3.394531 2.21875 -3.984375 1.738281 -3.984375 0.78125 C -3.546875 0.332031 -3.03125 -0.257812 -2.4375 -1 C -1.914062 -1.582031 -1.265625 -2.296875 -0.484375 -3.140625 C 0.285156 -3.992188 1.1875 -4.976562 2.21875 -6.09375 C 4.351562 -8.375 5.957031 -10.253906 7.03125 -11.734375 C 8.101562 -13.210938 8.640625 -14.359375 8.640625 -15.171875 C 8.640625 -15.460938 8.378906 -15.609375 7.859375 -15.609375 C 7.335938 -15.609375 6.859375 -15.535156 6.421875 -15.390625 C 5.898438 -15.242188 5.34375 -15.054688 4.75 -14.828125 C 4.164062 -14.609375 3.726562 -14.5 3.4375 -14.5 C 2.988281 -14.5 2.765625 -14.6875 2.765625 -15.0625 C 2.765625 -15.351562 3.097656 -15.773438 3.765625 -16.328125 C 4.429688 -16.878906 5.207031 -17.429688 6.09375 -17.984375 C 6.976562 -18.535156 7.898438 -19.015625 8.859375 -19.421875 C 9.816406 -19.828125 10.59375 -20.03125 11.1875 -20.03125 C 12 -20.03125 12.71875 -19.863281 13.34375 -19.53125 C 13.96875 -19.207031 14.28125 -18.414062 14.28125 -17.15625 C 14.28125 -15.90625 13.597656 -14.335938 12.234375 -12.453125 C 10.867188 -10.566406 9.335938 -8.554688 7.640625 -6.421875 C 12.734375 -9.523438 17.9375 -12.625 23.25 -15.71875 C 25.90625 -17.269531 27.859375 -18.046875 29.109375 -18.046875 C 31.035156 -18.046875 32 -17.34375 32 -15.9375 C 32 -14.90625 30.816406 -13.0625 28.453125 -10.40625 C 27.046875 -8.851562 25.898438 -7.523438 25.015625 -6.421875 C 24.128906 -5.316406 23.46875 -4.359375 23.03125 -3.546875 C 33.875 -10.109375 40.773438 -14.09375 43.734375 -15.5 C 45.648438 -16.457031 47.304688 -17.191406 48.703125 -17.703125 C 50.109375 -18.222656 51.328125 -18.484375 52.359375 -18.484375 C 52.878906 -18.484375 53.140625 -18.039062 53.140625 -17.15625 C 52.921875 -16.789062 52.660156 -16.382812 52.359375 -15.9375 C 52.066406 -15.570312 51.753906 -15.09375 51.421875 -14.5 C 51.085938 -13.90625 50.664062 -13.207031 50.15625 -12.40625 C 48.226562 -9.375 47.265625 -6.898438 47.265625 -4.984375 C 47.265625 -2.023438 48.628906 -0.546875 51.359375 -0.546875 C 52.398438 -0.546875 53.4375 -0.640625 54.46875 -0.828125 C 55.5 -1.015625 56.804688 -1.398438 58.390625 -1.984375 C 59.984375 -2.578125 61.976562 -3.410156 64.375 -4.484375 C 66.769531 -5.554688 69.851562 -7.015625 73.625 -8.859375 C 73.769531 -8.929688 73.96875 -8.96875 74.21875 -8.96875 C 74.476562 -8.96875 74.679688 -8.742188 74.828125 -8.296875 Z M 74.828125 -8.296875 "/></g></g></g><g fill="#374427" fill-opacity="1"><g transform="translate(269.907619, 96.935669)"><g><path d="M 38.1875 -18.15625 C 38.1875 -17.9375 38.164062 -17.734375 38.125 -17.546875 C 38.09375 -17.359375 37.96875 -17.117188 37.75 -16.828125 C 35.09375 -13.578125 31.035156 -10.109375 25.578125 -6.421875 C 22.617188 -4.273438 20.03125 -2.6875 17.8125 -1.65625 C 15.601562 -0.625 13.757812 -0.0703125 12.28125 0 C 10.21875 0 8.445312 -0.703125 6.96875 -2.109375 C 6.3125 -1.222656 4.613281 -0.00390625 1.875 1.546875 C -1.289062 3.242188 -4.238281 4.09375 -6.96875 4.09375 C -10.8125 4.09375 -12.734375 2.582031 -12.734375 -0.4375 C -12.734375 -2.4375 -11.992188 -4.523438 -10.515625 -6.703125 C -9.035156 -8.878906 -6.894531 -11.222656 -4.09375 -13.734375 C -1.363281 -16.085938 1.195312 -17.816406 3.59375 -18.921875 C 6 -20.035156 8.160156 -20.59375 10.078125 -20.59375 C 13.835938 -20.59375 15.71875 -18.820312 15.71875 -15.28125 C 15.71875 -11.363281 13.503906 -7.523438 9.078125 -3.765625 C 10.035156 -2.804688 11.21875 -2.328125 12.625 -2.328125 C 15.132812 -2.328125 19.226562 -4.351562 24.90625 -8.40625 C 27.34375 -10.101562 29.578125 -11.800781 31.609375 -13.5 C 33.640625 -15.195312 35.460938 -16.894531 37.078125 -18.59375 C 37.160156 -18.820312 37.382812 -18.859375 37.75 -18.703125 C 38.039062 -18.703125 38.1875 -18.519531 38.1875 -18.15625 Z M 14.171875 -16.15625 C 14.171875 -17.34375 13.503906 -18.007812 12.171875 -18.15625 C 10.472656 -18.15625 9 -17.414062 7.75 -15.9375 C 6.644531 -14.613281 6.019531 -13.03125 5.875 -11.1875 C 5.875 -8.445312 6.351562 -6.632812 7.3125 -5.75 C 11.738281 -9.21875 14.023438 -12.6875 14.171875 -16.15625 Z M 5.640625 -3.984375 C 4.171875 -5.460938 3.4375 -7.378906 3.4375 -9.734375 C 3.4375 -12.910156 4.097656 -15.164062 5.421875 -16.5 C -3.359375 -12.4375 -7.75 -8.191406 -7.75 -3.765625 C -7.75 -1.035156 -6.675781 0.328125 -4.53125 0.328125 C -1.289062 0.328125 2.097656 -1.109375 5.640625 -3.984375 Z M 5.640625 -3.984375 "/></g></g></g><g fill="#374427" fill-opacity="1"><g transform="translate(303.338853, 96.935669)"><g><path d="M 56.5625 -18.15625 C 56.5625 -17.707031 56.414062 -17.300781 56.125 -16.9375 C 48.96875 -11.03125 43.953125 -7.117188 41.078125 -5.203125 C 34.359375 -0.628906 28.5625 1.65625 23.6875 1.65625 C 19.476562 1.65625 17.375 -0.554688 17.375 -4.984375 C 17.375 -5.796875 17.46875 -6.8125 17.65625 -8.03125 C 17.84375 -9.25 18.15625 -10.707031 18.59375 -12.40625 C 15.789062 -10.78125 12.929688 -9.097656 10.015625 -7.359375 C 7.097656 -5.628906 4.09375 -3.726562 1 -1.65625 C -3.351562 1.21875 -5.71875 2.65625 -6.09375 2.65625 C -6.164062 2.65625 -6.457031 2.507812 -6.96875 2.21875 C -7.414062 1.988281 -7.640625 1.726562 -7.640625 1.4375 C -7.640625 0.925781 -7.320312 0.0820312 -6.6875 -1.09375 C -6.0625 -2.28125 -5.015625 -3.910156 -3.546875 -5.984375 C -1.992188 -8.265625 -0.757812 -10.085938 0.15625 -11.453125 C 1.082031 -12.816406 1.734375 -13.796875 2.109375 -14.390625 C 1.804688 -14.835938 1.65625 -15.460938 1.65625 -16.265625 C 1.65625 -16.859375 2.132812 -17.488281 3.09375 -18.15625 C 4.132812 -18.75 4.945312 -19.082031 5.53125 -19.15625 C 8.039062 -19.15625 9.296875 -18.191406 9.296875 -16.265625 C 9.296875 -15.753906 8.113281 -13.875 5.75 -10.625 C 4.644531 -9.226562 3.703125 -8.046875 2.921875 -7.078125 C 2.148438 -6.117188 1.472656 -5.347656 0.890625 -4.765625 C 14.910156 -14.359375 23.953125 -19.15625 28.015625 -19.15625 C 28.378906 -19.15625 28.671875 -18.675781 28.890625 -17.71875 C 28.890625 -17.5625 27.75 -16.191406 25.46875 -13.609375 C 24.425781 -12.285156 23.609375 -11.015625 23.015625 -9.796875 C 22.429688 -8.578125 22.140625 -7.34375 22.140625 -6.09375 C 22.140625 -3.363281 24.019531 -2 27.78125 -2 C 30.59375 -2 35.28125 -4.210938 41.84375 -8.640625 C 43.101562 -9.367188 47.609375 -12.6875 55.359375 -18.59375 C 55.578125 -18.664062 55.832031 -18.703125 56.125 -18.703125 C 56.34375 -18.703125 56.488281 -18.519531 56.5625 -18.15625 Z M 56.5625 -18.15625 "/></g></g></g></svg>