<svg xmlns="http://www.w3.org/2000/svg" xmlns:xlink="http://www.w3.org/1999/xlink" width="600" zoomAndPan="magnify" viewBox="0 0 450 165.000002" height="220" preserveAspectRatio="xMidYMid meet" version="1.0"><defs><g/></defs><g fill="#374427" fill-opacity="1"><g transform="translate(35.371289, 108.279354)"><g><path d="M 104.09375 -78.359375 C 104.09375 -73.515625 101.878906 -68.332031 97.453125 -62.8125 C 93.035156 -57.300781 86.40625 -51.332031 77.5625 -44.90625 C 87.84375 -39.382812 92.984375 -34.207031 92.984375 -29.375 C 92.984375 -21.050781 84.363281 -12.882812 67.125 -4.875 C 51.25 2.300781 36.773438 5.96875 23.703125 6.125 C 13.117188 6.125 6.726562 5.859375 4.53125 5.328125 L -8.734375 20.40625 C -9.941406 21.84375 -11.113281 22.5625 -12.25 22.5625 C -12.78125 22.5625 -13.046875 22.1875 -13.046875 21.4375 C -13.046875 21.4375 -8.359375 15.953125 1.015625 4.984375 C -5.109375 3.546875 -8.171875 2.148438 -8.171875 0.796875 C -8.171875 -1.015625 -6.921875 -1.960938 -4.421875 -2.046875 C -3.890625 -2.046875 -3.265625 -1.988281 -2.546875 -1.875 C -1.828125 -1.757812 -0.976562 -1.515625 0 -1.140625 C 0.832031 -0.835938 1.644531 -0.628906 2.4375 -0.515625 C 3.226562 -0.398438 4.039062 -0.265625 4.875 -0.109375 L 24.609375 -26.421875 C 11.609375 -27.785156 5.109375 -30.769531 5.109375 -35.375 C 5.109375 -39.613281 9.601562 -43.207031 18.59375 -46.15625 C 20.632812 -46.90625 22.769531 -47.546875 25 -48.078125 C 27.226562 -48.609375 29.550781 -49.097656 31.96875 -49.546875 L 42.859375 -51.359375 C 53.210938 -64.972656 62.703125 -74.535156 71.328125 -80.046875 C 78.203125 -84.359375 85.835938 -86.59375 94.234375 -86.75 C 96.878906 -86.75 99.144531 -85.953125 101.03125 -84.359375 C 103.070312 -82.847656 104.09375 -80.847656 104.09375 -78.359375 Z M 98.984375 -75.0625 C 98.984375 -77.03125 97.925781 -78.84375 95.8125 -80.5 C 93.84375 -81.863281 91.195312 -82.546875 87.875 -82.546875 C 79.789062 -82.546875 71.285156 -78.351562 62.359375 -69.96875 C 60.847656 -68.445312 58.804688 -66.15625 56.234375 -63.09375 C 53.671875 -60.039062 50.535156 -56.128906 46.828125 -51.359375 C 49.242188 -51.359375 51.90625 -51.171875 54.8125 -50.796875 C 57.726562 -50.421875 60.925781 -49.816406 64.40625 -48.984375 C 66.289062 -48.378906 68.140625 -47.847656 69.953125 -47.390625 C 71.773438 -46.941406 73.628906 -46.453125 75.515625 -45.921875 C 79.296875 -49.097656 82.523438 -51.914062 85.203125 -54.375 C 87.890625 -56.832031 90.101562 -59.003906 91.84375 -60.890625 C 96.457031 -66.179688 98.835938 -70.90625 98.984375 -75.0625 Z M 68.9375 -42.515625 C 63.269531 -44.109375 58.359375 -45.28125 54.203125 -46.03125 C 50.046875 -46.789062 46.601562 -47.242188 43.875 -47.390625 L 32.203125 -31.296875 C 39.234375 -31.742188 46.90625 -33.441406 55.21875 -36.390625 C 58.46875 -37.453125 61.242188 -38.472656 63.546875 -39.453125 C 65.859375 -40.441406 67.65625 -41.460938 68.9375 -42.515625 Z M 88.4375 -27.328125 C 88.4375 -30.421875 86.054688 -33.554688 81.296875 -36.734375 C 76.992188 -39.765625 73.742188 -41.28125 71.546875 -41.28125 C 59.222656 -34.394531 44.972656 -29.476562 28.796875 -26.53125 L 8.171875 0.796875 C 13.003906 1.023438 19.007812 1.140625 26.1875 1.140625 C 40.175781 1.140625 53.9375 -1.734375 67.46875 -7.484375 C 81.445312 -13.378906 88.4375 -19.992188 88.4375 -27.328125 Z M 39.90625 -47.171875 C 38.320312 -47.316406 35.753906 -47.109375 32.203125 -46.546875 C 28.648438 -45.984375 24.113281 -45.054688 18.59375 -43.765625 C 12.25 -42.253906 9.078125 -40.289062 9.078125 -37.875 C 9.078125 -36.132812 11.757812 -34.472656 17.125 -32.890625 C 21.207031 -31.671875 24.875 -31.0625 28.125 -31.0625 Z M 39.90625 -47.171875 "/></g></g></g><g fill="#374427" fill-opacity="1"><g transform="translate(134.809282, 108.279354)"><g><path d="M 47.171875 -9.640625 C 47.316406 -9.035156 47.164062 -8.617188 46.71875 -8.390625 C 41.5 -5.140625 36.488281 -2.359375 31.6875 -0.046875 C 26.894531 2.253906 22.71875 3.40625 19.15625 3.40625 C 15.082031 3.40625 12.929688 0.34375 12.703125 -5.78125 C 12.015625 -5.40625 10.972656 -4.816406 9.578125 -4.015625 C 8.179688 -3.222656 6.707031 -2.410156 5.15625 -1.578125 C 3.601562 -0.753906 2.050781 -0.0195312 0.5 0.625 C -1.039062 1.269531 -2.300781 1.628906 -3.28125 1.703125 C -4.71875 1.847656 -6.019531 1.65625 -7.1875 1.125 C -8.363281 0.601562 -9.101562 -0.488281 -9.40625 -2.15625 C -9.40625 -5.476562 -6.304688 -9.5625 -0.109375 -14.40625 C 3.066406 -16.75 6.085938 -18.523438 8.953125 -19.734375 C 11.828125 -20.941406 14.25 -21.546875 16.21875 -21.546875 C 19.007812 -21.617188 20.445312 -20.9375 20.53125 -19.5 C 20.53125 -18.144531 20.035156 -17.050781 19.046875 -16.21875 C 18.296875 -15.53125 17.351562 -15.1875 16.21875 -15.1875 C 16.132812 -15.269531 16.054688 -15.421875 15.984375 -15.640625 C 15.910156 -15.796875 15.832031 -15.96875 15.75 -16.15625 C 15.675781 -16.34375 15.566406 -16.585938 15.421875 -16.890625 C 14.960938 -18.023438 14.054688 -18.628906 12.703125 -18.703125 C 9.753906 -18.703125 6.3125 -17.039062 2.375 -13.71875 C -1.394531 -10.539062 -3.28125 -7.671875 -3.28125 -5.109375 C -3.28125 -4.503906 -3.164062 -3.953125 -2.9375 -3.453125 C -2.71875 -2.960938 -2.304688 -2.679688 -1.703125 -2.609375 C 0.410156 -2.453125 2.503906 -2.789062 4.578125 -3.625 C 6.660156 -4.457031 8.875 -5.664062 11.21875 -7.25 C 12.207031 -7.9375 13.910156 -9.601562 16.328125 -12.25 C 17.835938 -14.0625 19.160156 -14.929688 20.296875 -14.859375 C 21.203125 -14.859375 21.65625 -14.476562 21.65625 -13.71875 C 21.65625 -13.039062 21.015625 -11.566406 19.734375 -9.296875 C 18.523438 -7.179688 17.921875 -5.632812 17.921875 -4.65625 C 17.921875 -1.851562 19.28125 -0.414062 22 -0.34375 C 24.414062 -0.34375 26.851562 -0.71875 29.3125 -1.46875 C 31.769531 -2.226562 34.054688 -3.132812 36.171875 -4.1875 C 38.285156 -5.25 40.15625 -6.304688 41.78125 -7.359375 C 43.40625 -8.421875 44.597656 -9.21875 45.359375 -9.75 C 45.734375 -9.90625 46.085938 -10.035156 46.421875 -10.140625 C 46.765625 -10.253906 47.015625 -10.085938 47.171875 -9.640625 Z M 47.171875 -9.640625 "/></g></g></g><g fill="#374427" fill-opacity="1"><g transform="translate(184.698353, 108.279354)"><g><path d="M 46.375 -9.40625 C 46.375 -9.1875 46.296875 -9.019531 46.140625 -8.90625 C 45.992188 -8.789062 45.847656 -8.65625 45.703125 -8.5 C 44.566406 -7.59375 43.222656 -6.59375 41.671875 -5.5 C 40.117188 -4.40625 38.703125 -3.476562 37.421875 -2.71875 C 34.015625 -0.675781 31.007812 0.703125 28.40625 1.421875 C 25.800781 2.140625 23.515625 2.5 21.546875 2.5 C 19.046875 2.5 17.054688 1.738281 15.578125 0.21875 C 14.109375 -1.289062 13.300781 -3.519531 13.15625 -6.46875 C 11.945312 -5.5625 10.625 -4.632812 9.1875 -3.6875 C 7.75 -2.738281 6.328125 -1.882812 4.921875 -1.125 C 3.523438 -0.375 2.203125 0.242188 0.953125 0.734375 C -0.285156 1.222656 -1.285156 1.46875 -2.046875 1.46875 C -5.742188 1.46875 -7.59375 -0.191406 -7.59375 -3.515625 C -7.59375 -5.484375 -7.082031 -7.179688 -6.0625 -8.609375 C -5.039062 -10.046875 -3.773438 -10.765625 -2.265625 -10.765625 C -1.429688 -10.765625 -0.863281 -10.441406 -0.5625 -9.796875 C -0.257812 -9.160156 -0.109375 -8.460938 -0.109375 -7.703125 C -0.109375 -7.097656 -0.128906 -6.515625 -0.171875 -5.953125 C -0.210938 -5.390625 -0.210938 -4.859375 -0.171875 -4.359375 C -0.128906 -3.867188 0 -3.472656 0.21875 -3.171875 C 0.445312 -2.867188 0.828125 -2.71875 1.359375 -2.71875 C 2.867188 -2.71875 4.609375 -3.300781 6.578125 -4.46875 C 8.546875 -5.644531 10.242188 -6.800781 11.671875 -7.9375 C 12.503906 -8.539062 13.546875 -9.5625 14.796875 -11 C 16.046875 -12.4375 17.539062 -14.289062 19.28125 -16.5625 C 19.957031 -17.382812 20.65625 -18.269531 21.375 -19.21875 C 22.09375 -20.164062 22.789062 -21.035156 23.46875 -21.828125 C 24.15625 -22.617188 24.835938 -23.257812 25.515625 -23.75 C 26.191406 -24.25 26.832031 -24.5 27.4375 -24.5 C 27.894531 -24.5 28.332031 -24.398438 28.75 -24.203125 C 29.164062 -24.015625 29.375 -23.582031 29.375 -22.90625 C 29.375 -22.226562 29.179688 -21.601562 28.796875 -21.03125 C 28.421875 -20.46875 27.910156 -19.898438 27.265625 -19.328125 C 26.628906 -18.765625 25.894531 -18.179688 25.0625 -17.578125 C 24.226562 -16.972656 23.359375 -16.21875 22.453125 -15.3125 C 21.085938 -14.019531 20.046875 -12.882812 19.328125 -11.90625 C 18.609375 -10.925781 18.25 -9.867188 18.25 -8.734375 C 18.25 -5.859375 18.96875 -3.890625 20.40625 -2.828125 C 21.84375 -1.773438 24 -1.25 26.875 -1.25 C 28.914062 -1.25 30.9375 -1.660156 32.9375 -2.484375 C 34.9375 -3.316406 36.847656 -4.300781 38.671875 -5.4375 C 39.878906 -6.195312 41.007812 -6.953125 42.0625 -7.703125 C 43.125 -8.460938 44.1875 -9.222656 45.25 -9.984375 C 45.550781 -10.128906 45.773438 -10.203125 45.921875 -10.203125 C 46.222656 -10.203125 46.375 -9.9375 46.375 -9.40625 Z M 46.375 -9.40625 "/></g></g></g><g fill="#374427" fill-opacity="1"><g transform="translate(234.13389, 108.279354)"><g><path d="M 25.625 -9.75 C 25.625 -9.21875 25.507812 -8.84375 25.28125 -8.625 C 18.9375 -4.539062 13.4375 -1.515625 8.78125 0.453125 C 4.132812 2.421875 -0.226562 3.40625 -4.3125 3.40625 C -6.957031 3.40625 -8.941406 2.664062 -10.265625 1.1875 C -11.585938 -0.28125 -12.25 -2.226562 -12.25 -4.65625 C -12.25 -7.976562 -10.320312 -11.867188 -6.46875 -16.328125 C -2.382812 -20.640625 1.09375 -22.796875 3.96875 -22.796875 C 4.875 -22.796875 5.722656 -22.601562 6.515625 -22.21875 C 7.304688 -21.84375 7.703125 -20.898438 7.703125 -19.390625 C 7.703125 -18.109375 6.984375 -16.726562 5.546875 -15.25 C 4.117188 -13.78125 2.648438 -12.398438 1.140625 -11.109375 C 0.00390625 -10.054688 -1.242188 -9.054688 -2.609375 -8.109375 C -3.972656 -7.160156 -5.519531 -6.234375 -7.25 -5.328125 C -7.175781 -3.585938 -6.476562 -2.335938 -5.15625 -1.578125 C -3.832031 -0.828125 -2.414062 -0.453125 -0.90625 -0.453125 C 1.582031 -0.453125 5 -1.113281 9.34375 -2.4375 C 13.695312 -3.757812 18.75 -6.347656 24.5 -10.203125 C 24.71875 -10.429688 24.957031 -10.503906 25.21875 -10.421875 C 25.488281 -10.347656 25.625 -10.125 25.625 -9.75 Z M 2.71875 -18.140625 C 2.71875 -18.742188 2.226562 -19.046875 1.25 -19.046875 C -0.0390625 -19.046875 -1.742188 -17.875 -3.859375 -15.53125 C -4.910156 -14.476562 -5.703125 -13.34375 -6.234375 -12.125 C -6.765625 -10.914062 -7.03125 -9.898438 -7.03125 -9.078125 C -6.875 -9.078125 -6.378906 -9.207031 -5.546875 -9.46875 C -4.722656 -9.726562 -4.046875 -10.050781 -3.515625 -10.4375 C -1.546875 -11.5625 -0.015625 -12.863281 1.078125 -14.34375 C 2.171875 -15.820312 2.71875 -17.085938 2.71875 -18.140625 Z M 2.71875 -18.140625 "/></g></g></g><g fill="#374427" fill-opacity="1"><g transform="translate(262.253191, 108.279354)"><g><path d="M 26.1875 -41.390625 C 26.1875 -41.316406 18.210938 -32.171875 2.265625 -13.953125 C 3.703125 -14.703125 5.140625 -15.453125 6.578125 -16.203125 C 8.015625 -16.960938 9.488281 -17.757812 11 -18.59375 C 14.625 -20.1875 17.910156 -21.019531 20.859375 -21.09375 C 24.035156 -21.09375 25.738281 -19.691406 25.96875 -16.890625 C 25.96875 -15.078125 24.457031 -12.546875 21.4375 -9.296875 C 20 -7.785156 18.410156 -6.40625 16.671875 -5.15625 C 14.929688 -3.90625 12.960938 -2.640625 10.765625 -1.359375 C 6.390625 0.910156 2.878906 2.082031 0.234375 2.15625 C -0.378906 2.15625 -0.875 2.039062 -1.25 1.8125 C -1.625 1.582031 -2 1.28125 -2.375 0.90625 C -3.0625 0.226562 -3.40625 -0.640625 -3.40625 -1.703125 C -3.40625 -3.816406 -2.6875 -4.953125 -1.25 -5.109375 C -0.488281 -5.109375 0.00390625 -4.878906 0.234375 -4.421875 C 0.453125 -4.117188 0.753906 -3.585938 1.140625 -2.828125 C 1.660156 -1.703125 2.832031 -1.140625 4.65625 -1.140625 C 7 -1.140625 10.320312 -2.953125 14.625 -6.578125 C 19.007812 -9.972656 21.203125 -12.992188 21.203125 -15.640625 C 21.203125 -16.859375 19.84375 -17.578125 17.125 -17.796875 C 14.550781 -17.796875 11.941406 -16.96875 9.296875 -15.3125 C 8.234375 -14.625 6.660156 -13.445312 4.578125 -11.78125 C 2.503906 -10.125 -0.078125 -7.972656 -3.171875 -5.328125 C -7.109375 -2.003906 -11.15625 1.941406 -15.3125 6.515625 C -19.46875 11.085938 -23.8125 16.398438 -28.34375 22.453125 C -36.050781 33.179688 -40.25 40.0625 -40.9375 43.09375 L -40.9375 47.171875 C -40.9375 48.234375 -41.3125 48.988281 -42.0625 49.4375 C -42.664062 49.894531 -43.382812 50.195312 -44.21875 50.34375 C -44.675781 50.34375 -45.113281 50.304688 -45.53125 50.234375 C -45.945312 50.160156 -46.34375 49.972656 -46.71875 49.671875 C -47.46875 49.285156 -47.957031 48.640625 -48.1875 47.734375 C -48.1875 46.378906 -47.695312 45.171875 -46.71875 44.109375 C -45.882812 42.597656 -45.222656 41.484375 -44.734375 40.765625 C -44.242188 40.046875 -43.957031 39.609375 -43.875 39.453125 C -41.457031 34.992188 -37.941406 29.703125 -33.328125 23.578125 C -28.722656 17.460938 -22.976562 10.394531 -16.09375 2.375 C -12.84375 -1.476562 -8.023438 -6.992188 -1.640625 -14.171875 C 4.742188 -21.359375 12.890625 -30.316406 22.796875 -41.046875 C 23.773438 -42.023438 24.601562 -42.554688 25.28125 -42.640625 C 25.664062 -42.640625 25.96875 -42.222656 26.1875 -41.390625 Z M 26.1875 -41.390625 "/></g></g></g><g fill="#374427" fill-opacity="1"><g transform="translate(299.896765, 108.279354)"><g><path d="M 47.171875 -9.640625 C 47.472656 -9.785156 47.753906 -9.953125 48.015625 -10.140625 C 48.285156 -10.335938 48.492188 -10.207031 48.640625 -9.75 C 48.867188 -9.21875 48.679688 -8.726562 48.078125 -8.28125 C 42.628906 -4.195312 37.503906 -1.0625 32.703125 1.125 C 27.910156 3.320312 23.546875 4.421875 19.609375 4.421875 C 17.117188 4.421875 15.15625 3.566406 13.71875 1.859375 C 12.28125 0.160156 11.710938 -2.234375 12.015625 -5.328125 C 11.109375 -4.492188 9.992188 -3.625 8.671875 -2.71875 C 7.347656 -1.8125 5.988281 -0.941406 4.59375 -0.109375 C 3.195312 0.722656 1.816406 1.398438 0.453125 1.921875 C -0.910156 2.453125 -2.117188 2.71875 -3.171875 2.71875 C -4.378906 2.71875 -5.515625 2.320312 -6.578125 1.53125 C -7.640625 0.738281 -8.171875 -0.523438 -8.171875 -2.265625 C -8.242188 -4.835938 -7.109375 -7.367188 -4.765625 -9.859375 C -3.703125 -10.992188 -2.078125 -12.375 0.109375 -14 C 2.304688 -15.625 5.101562 -17.535156 8.5 -19.734375 C 8.957031 -19.734375 9.257812 -19.5625 9.40625 -19.21875 C 9.5625 -18.875 9.523438 -18.476562 9.296875 -18.03125 C 8.316406 -17.425781 7.332031 -16.78125 6.34375 -16.09375 C 5.363281 -15.414062 4.34375 -14.660156 3.28125 -13.828125 C 1.394531 -12.242188 0.0195312 -10.75 -0.84375 -9.34375 C -1.71875 -7.945312 -2.226562 -6.609375 -2.375 -5.328125 C -2.601562 -3.054688 -1.890625 -1.734375 -0.234375 -1.359375 C 1.128906 -1.054688 2.695312 -1.414062 4.46875 -2.4375 C 6.25 -3.457031 8.273438 -4.875 10.546875 -6.6875 C 11.378906 -7.363281 12.414062 -8.382812 13.65625 -9.75 C 14.90625 -11.113281 16.398438 -12.96875 18.140625 -15.3125 C 20.785156 -18.789062 22.710938 -20.53125 23.921875 -20.53125 C 24.910156 -20.53125 25.441406 -20.113281 25.515625 -19.28125 C 25.515625 -18.445312 24.078125 -16.707031 21.203125 -14.0625 C 18.484375 -11.488281 17.125 -9.296875 17.125 -7.484375 C 17.125 -4.160156 17.785156 -1.929688 19.109375 -0.796875 C 20.429688 0.335938 22.300781 0.90625 24.71875 0.90625 C 26.53125 0.90625 28.53125 0.507812 30.71875 -0.28125 C 32.914062 -1.070312 35.265625 -2.113281 37.765625 -3.40625 C 39.046875 -4.082031 40.554688 -4.910156 42.296875 -5.890625 C 44.035156 -6.878906 45.660156 -8.128906 47.171875 -9.640625 Z M 47.171875 -9.640625 "/></g></g></g><g fill="#374427" fill-opacity="1"><g transform="translate(351.146439, 108.279354)"><g><path d="M 24.03125 -26.53125 C 22.070312 -26.53125 20.445312 -25.753906 19.15625 -24.203125 C 17.875 -22.660156 17.234375 -20.941406 17.234375 -19.046875 C 17.234375 -17.765625 17.664062 -16.671875 18.53125 -15.765625 C 19.40625 -14.859375 20.863281 -14.40625 22.90625 -14.40625 C 24.875 -15.53125 26.269531 -16.847656 27.09375 -18.359375 C 27.925781 -19.878906 28.34375 -21.28125 28.34375 -22.5625 C 28.113281 -25.207031 26.675781 -26.53125 24.03125 -26.53125 Z M 5.890625 0.6875 C 3.847656 1.8125 1.734375 2.375 -0.453125 2.375 C -2.191406 2.375 -3.628906 1.84375 -4.765625 0.78125 C -5.898438 -0.269531 -6.46875 -1.890625 -6.46875 -4.078125 C -6.46875 -5.585938 -5.957031 -6.984375 -4.9375 -8.265625 C -3.914062 -9.554688 -2.648438 -10.203125 -1.140625 -10.203125 C 0.148438 -10.203125 0.796875 -9.75 0.796875 -8.84375 C 0.640625 -8.238281 0.484375 -7.613281 0.328125 -6.96875 C 0.179688 -6.332031 0.109375 -5.632812 0.109375 -4.875 C 0.109375 -4.039062 0.28125 -3.265625 0.625 -2.546875 C 0.96875 -1.828125 1.550781 -1.46875 2.375 -1.46875 C 3.664062 -1.46875 5.007812 -1.804688 6.40625 -2.484375 C 7.800781 -3.171875 9.597656 -4.269531 11.796875 -5.78125 C 13.535156 -6.914062 15.253906 -8.125 16.953125 -9.40625 C 18.648438 -10.695312 20.03125 -11.679688 21.09375 -12.359375 C 20.71875 -12.285156 20.375 -12.25 20.0625 -12.25 C 19.757812 -12.25 19.421875 -12.25 19.046875 -12.25 C 17.078125 -12.320312 15.546875 -12.847656 14.453125 -13.828125 C 13.359375 -14.816406 12.8125 -16.101562 12.8125 -17.6875 C 12.8125 -19.195312 13.242188 -20.648438 14.109375 -22.046875 C 14.984375 -23.453125 16.082031 -24.664062 17.40625 -25.6875 C 18.726562 -26.707031 20.160156 -27.519531 21.703125 -28.125 C 23.253906 -28.726562 24.710938 -29.03125 26.078125 -29.03125 C 28.191406 -29.03125 29.664062 -28.578125 30.5 -27.671875 C 31.332031 -26.765625 31.75 -25.664062 31.75 -24.375 C 31.75 -23.09375 31.425781 -21.789062 30.78125 -20.46875 C 30.144531 -19.144531 29.445312 -18.066406 28.6875 -17.234375 C 29.144531 -17.390625 29.785156 -17.691406 30.609375 -18.140625 C 31.441406 -18.597656 32.085938 -18.828125 32.546875 -18.828125 C 33.078125 -18.828125 33.34375 -18.523438 33.34375 -17.921875 C 33.34375 -17.160156 32.71875 -16.097656 31.46875 -14.734375 C 30.21875 -13.378906 28.953125 -12.054688 27.671875 -10.765625 C 26.460938 -9.554688 25.457031 -8.328125 24.65625 -7.078125 C 23.863281 -5.835938 23.46875 -4.5 23.46875 -3.0625 C 23.46875 -1.851562 23.804688 -0.867188 24.484375 -0.109375 C 25.171875 0.640625 26.382812 1.015625 28.125 1.015625 C 30.382812 1.097656 33.175781 0.515625 36.5 -0.734375 C 39.832031 -1.984375 44.222656 -4.5 49.671875 -8.28125 C 49.816406 -8.425781 50.039062 -8.5 50.34375 -8.5 C 50.5 -8.5 50.6875 -8.3125 50.90625 -7.9375 C 50.90625 -7.257812 50.71875 -6.84375 50.34375 -6.6875 C 47.019531 -4.644531 44.09375 -2.941406 41.5625 -1.578125 C 39.03125 -0.222656 36.796875 0.867188 34.859375 1.703125 C 32.929688 2.535156 31.226562 3.117188 29.75 3.453125 C 28.28125 3.796875 26.941406 3.96875 25.734375 3.96875 C 21.046875 3.96875 18.703125 2.15625 18.703125 -1.46875 C 18.703125 -2.375 19.082031 -3.453125 19.84375 -4.703125 C 20.601562 -5.953125 21.472656 -7.195312 22.453125 -8.4375 C 23.429688 -9.6875 24.429688 -10.859375 25.453125 -11.953125 C 26.472656 -13.054688 27.25 -13.945312 27.78125 -14.625 L 25.28125 -13.71875 C 24.832031 -13.414062 23.832031 -12.640625 22.28125 -11.390625 C 20.726562 -10.148438 18.988281 -8.753906 17.0625 -7.203125 C 15.132812 -5.648438 13.148438 -4.132812 11.109375 -2.65625 C 9.066406 -1.1875 7.328125 -0.0703125 5.890625 0.6875 Z M 5.890625 0.6875 "/></g></g></g></svg>